<svg xmlns="http://www.w3.org/2000/svg" viewBox="0 0 411.04 413.84">
  <g id="Layer_2" data-name="Layer 2">
    <g id="Layer_1-2" data-name="Layer 1">
      <g>
        <path d="M281.68,238H30.8a30.8,30.8,0,0,1,0-61.6H282.24A31.07,31.07,0,0,1,313,207.2c-.56,16.8-14,30.8-31.36,30.8Z"/>
        <path d="M173,413.84H30.8a30.8,30.8,0,0,1,0-61.6H173a31.07,31.07,0,0,1,30.8,30.8,30.7,30.7,0,0,1-30.79,30.8Z"/>
        <path d="M379.68,61.6H30.8A31.07,31.07,0,0,1,0,30.8,31.07,31.07,0,0,1,30.8,0H380.24A31.07,31.07,0,0,1,411,30.8c-.56,16.8-14,30.8-31.36,30.8Z"/>
      </g>
    </g>
  </g>
</svg>
