<svg xmlns="http://www.w3.org/2000/svg" viewBox="0 0 356.34 334.9">
  <g id="Layer_2" data-name="Layer 2">
    <g id="Layer_1-2" data-name="Layer 1">
      <g>
        <path d="M183.4,52a46,46,0,0,1,5.6,2.74,8.41,8.41,0,1,0,8.62-14.45,64.05,64.05,0,0,0-7.39-3.75,8.4,8.4,0,0,0-6.66,15.4Z"/>
        <path d="M110.54,83.89a8.37,8.37,0,0,0,10.75-5.1,46.4,46.4,0,0,1,36.62-30.07,8.49,8.49,0,1,0-2.52-16.8,63.19,63.19,0,0,0-50.12,41.22,8.41,8.41,0,0,0,5.27,10.75Z"/>
        <path d="M320.77,167.39a59.25,59.25,0,0,0-63.62-94.08A94.53,94.53,0,0,0,79.86,53.54,68.31,68.31,0,1,0,68.32,189.17h5.6a57.5,57.5,0,0,0-.45,6.55A55.12,55.12,0,0,0,89.15,234.2H65.07a8.4,8.4,0,0,0,0,16.8h249a42.06,42.06,0,0,0,6.67-83.61Zm-304-46.48a51.4,51.4,0,0,1,65.74-49.5,8.41,8.41,0,0,0,10.14-5A77.73,77.73,0,0,1,242.32,86.08a8.39,8.39,0,0,0,12.37,6.49,42.5,42.5,0,0,1,52.75,64.74v-.39a64.15,64.15,0,0,0-4.25-6.33l-.45-.67a63.66,63.66,0,0,0-4.76-5.6l-.9-.95a59,59,0,0,0-5.6-4.87l-1-.79a64.89,64.89,0,0,0-6.16-4.26H284a65.16,65.16,0,0,0-6.55-3.36l-.95-.45h0a63.78,63.78,0,0,0-7-2.47l-1.34-.39h0a62.71,62.71,0,0,0-7.28-1.51h-1.18a64,64,0,0,0-8-.56,62.38,62.38,0,0,0-14.84,1.79,54.26,54.26,0,0,0-99.18,14.84,54,54,0,0,0-9.07-.73,57,57,0,0,0-7.5.56h-.79a57,57,0,0,0-6.83,1.51l-1.06.29a54,54,0,0,0-6.39,2.4l-1,.45a54.23,54.23,0,0,0-6,3.25l-.72.5a53.43,53.43,0,0,0-5.6,4.2h-.28a54.79,54.79,0,0,0-9.8,11.2l-.34.51a54.62,54.62,0,0,0-3.47,6.27v.5H68.32a51.62,51.62,0,0,1-51.57-51.35ZM314.11,234.25H205.7a19,19,0,1,1,19-19,8.4,8.4,0,1,0,16.8,0,35.78,35.78,0,1,0-66.08,19H128.7a38.53,38.53,0,0,1-38.47-38.47,37.36,37.36,0,0,1,2-12.27,38.43,38.43,0,0,1,49.62-23.8,8.4,8.4,0,0,0,11.2-7.5,37.46,37.46,0,0,1,72-12.83,8.41,8.41,0,0,0,10.7,4.6,45.58,45.58,0,0,1,16.13-2.92,46.25,46.25,0,0,1,44.46,32.82,41,41,0,0,1,1.07,4.09,8.39,8.39,0,0,0,10.35,6.49,25.26,25.26,0,1,1,6.33,49.73Z"/>
        <path d="M121.41,267.12a8.4,8.4,0,0,0-11.2,4.42l-4.93,12.21a8.4,8.4,0,1,0,15.23,6.83l5.27-12.26h0a8.41,8.41,0,0,0-4.37-11.2Z"/>
        <path d="M187.65,267.12a8.41,8.41,0,0,0-11.2,4.42l-5.27,12.27h0a8.48,8.48,0,1,0,15.56,6.77L192,278.32h0a8.39,8.39,0,0,0-4.37-11.2Z"/>
        <path d="M253.9,267.12a8.4,8.4,0,0,0-11.2,4.42l-5.27,12.27A8.49,8.49,0,0,0,253,290.58l5.27-12.26h0a8.41,8.41,0,0,0-4.37-11.2Z"/>
        <path d="M320.15,267.12a8.41,8.41,0,0,0-11.2,4.42l-5.27,12.27h0a8.48,8.48,0,1,0,15.56,6.77l5.27-12.26h0a8.41,8.41,0,0,0-4.37-11.2Z"/>
        <path d="M170.8,306.33a8.39,8.39,0,0,0-11.2,4.42L154.33,323h0a8.48,8.48,0,1,0,15.56,6.77l5.27-12.27h0a8.41,8.41,0,0,0-4.37-11.2Z"/>
        <path d="M237.05,306.33a8.38,8.38,0,0,0-11.2,4.42L220.58,323a8.49,8.49,0,0,0,15.57,6.77l5.27-12.27h0a8.41,8.41,0,0,0-4.37-11.2Z"/>
      </g>
    </g>
  </g>
</svg>
