<svg xmlns="http://www.w3.org/2000/svg" viewBox="0 0 513.34 418.38">
  <g id="Layer_2" data-name="Layer 2">
    <g id="Layer_1-2" data-name="Layer 1">
      <g>
        <path d="M326.67,48.34a11.68,11.68,0,0,0,11.67-11.67v-25a11.67,11.67,0,1,0-23.34,0v25a11.68,11.68,0,0,0,11.67,11.67Z"/>
        <path d="M501.67,175h-25a11.67,11.67,0,1,0,0,23.33h25a11.67,11.67,0,1,0,0-23.33Z"/>
        <path d="M212.36,88.85a11.67,11.67,0,1,0,16.5-16.5L217.07,60.56a11.67,11.67,0,0,0-16.49,16.51Z"/>
        <path d="M432.74,92.27A11.66,11.66,0,0,0,441,88.85l11.78-11.79a11.66,11.66,0,1,0-16.5-16.49L424.49,72.35h0a11.67,11.67,0,0,0,8.25,19.92Z"/>
        <path d="M391.65,268.34c-.61,0-1.22.11-1.83.12h0a103.26,103.26,0,1,0-155.89-126.8l-.59,0h0a138.24,138.24,0,0,0-127.52,84.94c-3.2-.31-6.44-.47-9.69-.47a96.14,96.14,0,0,0,0,192.27H391.65a75,75,0,1,0,0-150Zm-65-161.7a80.06,80.06,0,0,1,42.68,147.78c-.38-2-.9-4-1.37-6-.25-1.09-.46-2.2-.74-3.27-1-3.82-2.11-7.58-3.42-11.26-.06-.18-.14-.35-.2-.52-1.24-3.48-2.64-6.88-4.15-10.22-.47-1-1-2.07-1.5-3.11-1.19-2.46-2.42-4.89-3.75-7.26-.63-1.13-1.28-2.24-1.94-3.35-1.35-2.27-2.77-4.5-4.24-6.69-.69-1-1.37-2-2.09-3-1.7-2.39-3.5-4.71-5.35-7-.56-.68-1.08-1.39-1.65-2.06h0a138.57,138.57,0,0,0-16.5-16.45c-.58-.5-1.2-1-1.8-1.44q-3.62-2.94-7.42-5.66c-.8-.56-1.62-1.11-2.43-1.66q-3.72-2.52-7.61-4.8c-.8-.46-1.6-.94-2.41-1.39q-4.38-2.46-8.94-4.58c-.49-.23-1-.48-1.45-.7h0a137.94,137.94,0,0,0-22.75-8c-.74-.19-1.49-.33-2.24-.5-2.16-.51-4.3-1.06-6.49-1.48h0a79.46,79.46,0,0,1,67.75-37.35Zm65,288.4H96.13a72.8,72.8,0,0,1,0-145.6,71.49,71.49,0,0,1,14.88,1.5,11.64,11.64,0,0,0,13.44-7.68A114.94,114.94,0,0,1,233.34,165c2.39,0,4.89.12,7.11.22h0A114.8,114.8,0,0,1,348.15,272.8c.12,2.37.22,4.84.22,7.2,0,2.52-.2,4.85-.44,8a11.68,11.68,0,0,0,17.59,10.93A51.63,51.63,0,1,1,391.65,395Z"/>
      </g>
    </g>
  </g>
</svg>
