<svg xmlns="http://www.w3.org/2000/svg" viewBox="0 0 359.59 335.54">
  <g id="Layer_2" data-name="Layer 2">
    <g id="Layer_1-2" data-name="Layer 1">
      <g>
        <path d="M183.4,51.92a46.11,46.11,0,0,1,5.6,2.75,8.42,8.42,0,1,0,8.63-14.45,65,65,0,0,0-7.34-3.75,8.4,8.4,0,1,0-6.66,15.4Z"/>
        <path d="M110.54,83.67a8.39,8.39,0,0,0,10.75-5,46.38,46.38,0,0,1,36.63-30.08,8.49,8.49,0,1,0-2.52-16.8,63.18,63.18,0,0,0-50.12,41.33,8.4,8.4,0,0,0,5.26,10.59Z"/>
        <path d="M320.82,167.33a59.24,59.24,0,0,0-63.67-94A94.53,94.53,0,0,0,79.86,53.54a67.62,67.62,0,0,0-11.54-1,68.32,68.32,0,0,0,0,136.64h5.6A54.35,54.35,0,0,0,89.15,234H65a8.4,8.4,0,1,0,0,16.8H165.14l-6.44,12.61h0a8.4,8.4,0,0,0,7.45,12.21h11.19l-16.07,48.89a8.4,8.4,0,0,0,13.89,8.63l73.92-74,7.39-8H314.1a42.13,42.13,0,0,0,6.72-84ZM87.3,159.16a54.91,54.91,0,0,0-4.36,5.6l-.45.67a53.25,53.25,0,0,0-3.36,6l-.34.56H68.32A51.52,51.52,0,1,1,82.49,71.24a8.4,8.4,0,0,0,10.13-5A77.73,77.73,0,0,1,242.31,85.91a8.4,8.4,0,0,0,12.38,6.49,42.51,42.51,0,0,1,52.75,64.86l-.56-.79a61.29,61.29,0,0,0-3.53-5.6l-.78-1.18a63.51,63.51,0,0,0-4.43-5.26L296.8,143h0a63.41,63.41,0,0,0-4.93-4.48l-1.79-1.23a63.52,63.52,0,0,0-5.6-3.75l-1.4-.79a42.91,42.91,0,0,0-5.6-2.74l-1.74-.79h0a64.66,64.66,0,0,0-6.32-2.19l-2.13-.62h0a62.44,62.44,0,0,0-6.61-1.35h-2.07c-2.14-.26-4.29-.4-6.44-.45h-.95a61.82,61.82,0,0,0-14.84,1.8,54.21,54.21,0,0,0-98.62,14.84,54,54,0,0,0-9.07-.73h-1a56.11,56.11,0,0,0-5.94.44h-1.68a58.27,58.27,0,0,0-6.1,1.35l-1.74.5a57,57,0,0,0-5.6,2.19l-1.51.72h0a54.93,54.93,0,0,0-5.6,3l-1.12.73a53.46,53.46,0,0,0-5.6,4l-.56.51a55.09,55.09,0,0,0-4.93,5.09ZM211.68,246.4a8.4,8.4,0,0,0,7.51,4.6H233.3l-44.8,44.8,8.62-25.7h0a8.41,8.41,0,0,0-8-11.21h-9.3l26.21-50.62h28l-21.56,29.35a8.39,8.39,0,0,0-.84,8.79Zm102.26-12.15H235.55l21.55-29.34h0a8.4,8.4,0,0,0-6.21-13.44H200.82a8.42,8.42,0,0,0-7.45,4.59l-19.6,38.19H128.08a38.55,38.55,0,0,1-37.86-38.59,37.41,37.41,0,0,1,2-12.27,38.26,38.26,0,0,1,36.45-26.14,39,39,0,0,1,10.08,1.45c1,.28,2.07.45,3.08.84h0a8.4,8.4,0,0,0,11.2-7.51,37.47,37.47,0,0,1,72-12.37,8.4,8.4,0,0,0,10.69,4.59,45.57,45.57,0,0,1,16.13-2.91,46.25,46.25,0,0,1,44.47,32.76,40.91,40.91,0,0,1,1.06,4.09,8.4,8.4,0,0,0,10.42,6.27,25.05,25.05,0,0,1,6.32-.9,25.31,25.31,0,0,1,0,50.4Z"/>
        <path d="M38.47,211.24H10.08a8.41,8.41,0,0,0,0,16.81H38.42a8.41,8.41,0,0,0,0-16.81Z"/>
      </g>
    </g>
  </g>
</svg>
